<svg xmlns="http://www.w3.org/2000/svg" id="Layer_1" data-name="Layer 1" viewBox="0 0 197.683 39.92"><defs><style>      .cls-1, .cls-2 {        fill: #fff;      }      .cls-2, .cls-3 {        stroke: #fff;        stroke-miterlimit: 10;      }      .cls-3 {        fill: none;        stroke-width: 3.539px;      }    </style></defs><g><path class="cls-2" d="m32.516,4.039c1.855,0,3.364,1.509,3.364,3.364v25.114c0,1.855-1.509,3.364-3.364,3.364H7.403c-1.855,0-3.364-1.509-3.364-3.364V7.403c0-1.855,1.509-3.364,3.364-3.364h25.113m0-3.539H7.403C3.59.5.5,3.59.5,7.403v25.114c0,3.812,3.09,6.903,6.903,6.903h25.114c3.812,0,6.903-3.09,6.903-6.903V7.403c0-3.813-3.092-6.903-6.904-6.903h0Z"></path><line class="cls-3" x1="2.85" y1="26.201" x2="23.704" y2="26.201"></line><line class="cls-3" x1="17.463" y1="36.849" x2="27.303" y2="19.666"></line><line class="cls-3" x1="36.408" y1="35.968" x2="23.631" y2="13.351"></line><line class="cls-3" x1="37.583" y1="13.351" x2="16.435" y2="13.351"></line><line class="cls-3" x1="22.75" y1="2.483" x2="12.469" y2="19.959"></line><line class="cls-3" x1="16.435" y1="26.201" x2="3.511" y2="3.364"></line></g><g><path class="cls-1" d="m48.232,32.534c.455.281,1.121.514,1.821.514,1.039,0,1.646-.549,1.646-1.342,0-.735-.42-1.156-1.482-1.564-1.284-.455-2.078-1.121-2.078-2.229,0-1.226,1.016-2.136,2.544-2.136.806,0,1.389.187,1.739.385l-.28.828c-.257-.139-.782-.373-1.494-.373-1.074,0-1.482.643-1.482,1.18,0,.734.479,1.097,1.564,1.518,1.331.514,2.008,1.155,2.008,2.311,0,1.214-.899,2.265-2.755,2.265-.759,0-1.587-.222-2.008-.502l.257-.855Z"></path><path class="cls-1" d="m55.295,26.499v1.623h1.471v.782h-1.471v3.047c0,.7.199,1.097.771,1.097.269,0,.467-.035.595-.07l.047.771c-.199.082-.514.14-.911.14-.479,0-.864-.151-1.109-.432-.292-.304-.397-.806-.397-1.472v-3.081h-.875v-.782h.875v-1.354l1.004-.269Z"></path><path class="cls-1" d="m62.65,32.232c0,.584.012,1.098.047,1.541h-.911l-.058-.923h-.023c-.269.456-.864,1.051-1.868,1.051-.887,0-1.95-.49-1.95-2.475v-3.304h1.027v3.129c0,1.074.327,1.797,1.261,1.797.689,0,1.167-.479,1.354-.934.059-.151.093-.338.093-.525v-3.467h1.027v4.11h0Z"></path><path class="cls-1" d="m69.235,25.485v6.829c0,.502.012,1.073.047,1.459h-.922l-.047-.98h-.023c-.315.63-1.004,1.108-1.926,1.108-1.366,0-2.417-1.155-2.417-2.872-.011-1.879,1.156-3.035,2.533-3.035.864,0,1.447.409,1.704.864h.023v-3.373s1.028,0,1.028,0Zm-1.027,4.937c0-.128-.012-.304-.046-.433-.152-.652-.712-1.189-1.482-1.189-1.062,0-1.693.934-1.693,2.182,0,1.145.561,2.09,1.669,2.09.688,0,1.319-.455,1.506-1.226.035-.14.046-.28.046-.443,0,0,0-.981,0-.981Z"></path><path class="cls-1" d="m72.086,26.534c.012.351-.245.631-.654.631-.362,0-.619-.28-.619-.631,0-.361.269-.642.642-.642.385,0,.631.281.631.642Zm-1.145,7.239v-5.65h1.027v5.65h-1.027Z"></path><path class="cls-1" d="m78.786,30.901c0,2.089-1.447,3-2.813,3-1.529,0-2.708-1.12-2.708-2.907,0-1.891,1.238-3,2.802-3,1.622-.001,2.719,1.179,2.719,2.907Zm-4.482.058c0,1.237.712,2.171,1.716,2.171.98,0,1.716-.922,1.716-2.194,0-.958-.479-2.171-1.693-2.171s-1.739,1.12-1.739,2.194Z"></path><path class="cls-1" d="m79.943,32.722c.304.198.841.408,1.354.408.747,0,1.098-.373,1.098-.84,0-.49-.292-.76-1.051-1.039-1.016-.362-1.494-.922-1.494-1.6,0-.91.735-1.658,1.949-1.658.572,0,1.074.164,1.389.352l-.257.746c-.222-.14-.63-.326-1.155-.326-.607,0-.946.35-.946.77,0,.467.338.678,1.074.957.98.374,1.482.864,1.482,1.705,0,.992-.771,1.692-2.113,1.692-.619,0-1.191-.151-1.588-.386l.258-.781Z"></path><path class="cls-1" d="m87.136,33.773c.023-.386.046-.957.046-1.459v-6.829h1.016v3.548h.023c.362-.63,1.016-1.039,1.926-1.039,1.401,0,2.393,1.168,2.381,2.884,0,2.02-1.272,3.023-2.533,3.023-.817,0-1.471-.315-1.891-1.062h-.034l-.047.935h-.887Zm1.062-2.266c0,.129.023.258.047.374.198.712.793,1.202,1.541,1.202,1.074,0,1.716-.875,1.716-2.171,0-1.132-.583-2.101-1.681-2.101-.7,0-1.354.479-1.564,1.26-.023.117-.059.258-.059.42v1.016Z"></path><path class="cls-1" d="m94.118,28.122l1.237,3.339c.128.374.269.817.362,1.155h.023c.105-.338.222-.771.362-1.179l1.121-3.315h1.085l-1.541,4.027c-.735,1.938-1.237,2.93-1.938,3.537-.502.443-1.004.619-1.26.665l-.257-.864c.257-.081.595-.244.898-.502.28-.221.63-.618.864-1.144.047-.104.082-.187.082-.245s-.023-.14-.07-.268l-2.089-5.207h1.121Z"></path><path class="cls-1" d="m101.754,26.009c.443-.093,1.144-.162,1.855-.162,1.016,0,1.67.174,2.16.571.408.304.653.771.653,1.39,0,.758-.502,1.424-1.331,1.727v.023c.747.188,1.623.806,1.623,1.973,0,.678-.269,1.191-.666,1.576-.548.502-1.436.735-2.72.735-.7,0-1.237-.046-1.575-.093v-7.74h0Zm1.016,3.223h.922c1.074,0,1.704-.561,1.704-1.319,0-.923-.7-1.284-1.728-1.284-.467,0-.735.035-.898.07v2.533Zm0,3.769c.198.035.49.047.852.047,1.051,0,2.02-.385,2.02-1.529,0-1.073-.922-1.518-2.031-1.518h-.84v3h0Z"></path><path class="cls-1" d="m111.176,33.773l-.082-.713h-.035c-.315.443-.922.841-1.728.841-1.144,0-1.728-.806-1.728-1.622,0-1.366,1.214-2.113,3.396-2.102v-.117c0-.467-.128-1.307-1.283-1.307-.525,0-1.074.163-1.471.42l-.234-.678c.468-.303,1.145-.502,1.856-.502,1.728,0,2.147,1.18,2.147,2.312v2.112c0,.49.023.969.094,1.354h-.932v.002Zm-.152-2.884c-1.12-.023-2.393.175-2.393,1.272,0,.666.443.98.969.98.735,0,1.202-.467,1.366-.945.034-.105.058-.223.058-.327v-.98Z"></path><path class="cls-1" d="m113.979,28.122l1.108,3.176c.188.514.339.98.455,1.447h.035c.129-.467.292-.934.479-1.447l1.098-3.176h1.074l-2.218,5.65h-.98l-2.148-5.65h1.097Z"></path><path class="cls-1" d="m119.654,31.134c.022,1.389.91,1.961,1.938,1.961.735,0,1.179-.129,1.563-.291l.176.734c-.362.164-.98.351-1.88.351-1.739,0-2.778-1.144-2.778-2.849s1.004-3.047,2.65-3.047c1.844,0,2.334,1.623,2.334,2.662,0,.21-.022.373-.034.479,0,0-3.969,0-3.969,0Zm3.011-.735c.012-.653-.268-1.669-1.424-1.669-1.039,0-1.494.957-1.576,1.669h3Z"></path><path class="cls-1" d="m125.304,28.122l1.237,3.339c.129.374.269.817.362,1.155h.023c.104-.338.222-.771.361-1.179l1.121-3.315h1.085l-1.54,4.027c-.735,1.938-1.237,2.93-1.938,3.537-.502.443-1.004.619-1.26.665l-.255-.863c.257-.081.595-.244.898-.502.28-.221.63-.618.863-1.144.047-.104.082-.187.082-.245s-.023-.14-.07-.268l-2.089-5.207s1.12,0,1.12,0Z"></path><path class="cls-1" d="m133.512,33.773l-.082-.713h-.035c-.315.443-.922.841-1.728.841-1.144,0-1.728-.806-1.728-1.622,0-1.366,1.214-2.113,3.396-2.102v-.117c0-.467-.128-1.307-1.283-1.307-.525,0-1.074.163-1.471.42l-.234-.678c.468-.303,1.145-.502,1.856-.502,1.728,0,2.147,1.18,2.147,2.312v2.112c0,.49.023.969.094,1.354h-.932v.002Zm-.152-2.884c-1.12-.023-2.393.175-2.393,1.272,0,.666.443.98.969.98.735,0,1.202-.467,1.366-.945.034-.105.058-.223.058-.327v-.98h0Z"></path><path class="cls-1" d="m136.011,29.652c0-.584-.012-1.062-.046-1.529h.91l.059.934h.023c.279-.537.934-1.062,1.867-1.062.782,0,1.996.468,1.996,2.405v3.374h-1.027v-3.258c0-.91-.339-1.668-1.308-1.668-.677,0-1.202.479-1.377,1.05-.047.128-.07.304-.07.479v3.397h-1.027v-4.122h0Z"></path></g><path class="cls-1" d="m48.336,22.105V6.827h9.931c3.868-.087,6.858,2.462,7.122,5.177.316,3.247-3.259,6.282-5.594,6.282h-5.729v-3.82h5.347c1.299-.083,2.163-1.244,1.975-2.276-.151-.829-.969-1.518-1.975-1.543h-7.257v11.459h-3.82Zm22.536,0l3.863-9.131c.121-.286.529-.275.635.016l1.231,3.385h-1.91l-1.528,3.82h5.347l.764,1.91h4.584l-6.035-13.12c-1.094-2.379-4.464-2.406-5.597-.046l-6.32,13.166h4.966Zm73.719,0l3.863-9.131c.121-.286.529-.275.635.016l1.231,3.385h-1.91l-1.528,3.82h5.347l.764,1.91h4.584l-6.035-13.12c-1.094-2.379-4.464-2.406-5.597-.046l-6.32,13.166h4.966Zm40.106,0l3.863-9.131c.121-.286.529-.275.635.016l1.231,3.385h-1.91l-1.528,3.82h5.347l.764,1.91h4.584l-6.035-13.12c-1.094-2.379-4.464-2.406-5.597-.046l-6.32,13.166h4.966Zm-95.873,0v-10.695l7.6,9.772c.266.341.674.541,1.106.541h3.898V7.209h-3.82v9.549l-7.599-8.98c-1.708-2.019-5.006-.811-5.006,1.834v12.494h3.821Zm31.321-7.639c0,4.008-3.848,7.257-8.594,7.257s-8.594-3.249-8.594-7.257,3.848-7.257,8.594-7.257c4.747,0,8.594,3.249,8.594,7.257Zm-3.488-.191c0-2.215-2.126-4.011-4.749-4.011s-4.749,1.796-4.749,4.011,2.126,4.011,4.749,4.011,4.749-1.796,4.749-4.011Zm59.481-4.877c-.504-2.795-4.413-3.05-5.276-.345l-2.112,6.618c-.089.278-.482.278-.571,0l-2.112-6.618c-.863-2.705-4.772-2.45-5.276.345l-2.257,12.516h3.82l1.346-6.73c.054-.269.424-.303.526-.048l1.183,2.959.788,2.103c.228.607.701,1.09,1.303,1.331l.442.177c.336.134.71.134,1.045,0l.442-.177c.602-.241,1.075-.724,1.303-1.331l.788-2.103,1.183-2.959c.102-.255.472-.221.526.048l1.346,6.73h3.82l-2.257-12.516Zm-51.027,12.707v-11.459h7.257c1.055,0,1.91.855,1.91,1.91h0c0,1.055-.855,1.91-1.91,1.91h-5.347v3.629h4.202l3.056,4.011h4.966l-4.393-4.393h0c1.719-.955,3.247-2.599,3.247-4.393v-.796c0-3.041-2.465-5.507-5.507-5.507h-11.109l-.191,15.088h3.819Z"></path></svg>